<svg width="81" height="20" viewBox="0 0 81 20" fill="none" xmlns="http://www.w3.org/2000/svg">
<g clip-path="url(#clip0_5752_34133)">
<path d="M39.283 0.242188L35.9561 11.1785L32.5832 0.242188H28.744L25.3692 11.1862L22.0424 0.242188H17.0073L23.3487 19.758H27.4211L30.6387 9.44524L33.8563 19.758H37.9766L44.318 0.242188H39.283Z" fill="#1E1C21"/>
<path d="M60.5105 2.84421L60.4945 2.82751C58.7212 0.951066 56.3532 0 53.4581 0C50.5631 0 48.1963 0.951066 46.4217 2.82751C44.6727 4.67955 43.7579 7.0858 43.7036 9.98009V9.98395V10.0244C43.7579 12.9168 44.6727 15.3211 46.4217 17.1718C48.195 19.0489 50.5624 20 53.4581 20C56.3538 20 58.7212 19.0483 60.4951 17.1718C62.2448 15.3217 63.1589 12.9155 63.2132 10.0199V10.0161V9.9756C63.1589 7.09222 62.2499 4.69304 60.5105 2.84421ZM58.4286 10C58.4286 11.6029 57.9866 12.8744 57.0763 13.8871C56.2011 14.8613 55.0136 15.3352 53.4472 15.3352C51.8809 15.3352 50.6998 14.8626 49.8329 13.8903C48.929 12.8782 48.4902 11.6061 48.4902 10C48.4902 8.39391 48.9296 7.1224 49.8335 6.10968C50.7004 5.13743 51.8822 4.66543 53.4479 4.66543C55.0136 4.66543 56.2018 5.13935 57.0769 6.11354C57.9866 7.12625 58.4293 8.39777 58.4293 10H58.4286Z" fill="#1E1C21"/>
<path d="M79.9799 9.84917C80.6564 8.8493 81.0001 7.70944 81.0001 6.46233C81.0001 4.59295 80.2897 3.05685 78.8888 1.8958C77.5627 0.798314 75.6316 0.242188 73.1486 0.242188H65.1533V19.758H69.9386V13.1686H73.6309C74.4115 13.1686 74.9513 13.3157 75.1927 13.5944C75.3761 13.8429 75.5236 14.0792 75.6329 14.2975L75.6565 14.3419C75.7012 14.4221 75.9242 14.9038 75.9478 16.4771V19.758H80.7356V16.3711C80.7356 13.8872 80.1792 12.0409 79.0792 10.8728C79.4222 10.5697 79.7244 10.2268 79.9805 9.84853L79.9799 9.84917ZM76.2148 6.65755C76.2148 7.21496 76.0283 7.56816 75.5703 7.87705L75.5594 7.88411C74.9691 8.27841 74.11 8.47877 73.0042 8.47877H69.9379V4.93137H72.8828C74.782 4.93137 75.4815 5.29613 75.6942 5.45282C76.064 5.72639 76.2148 6.07509 76.2148 6.65691V6.65755Z" fill="#1E1C21"/>
<path d="M0 19.758H15.4698V15.0932H4.9769V12.3209H14.6024V7.65549H4.9769V4.90697H15.4698V0.242188H0V19.758Z" fill="#1E1C21"/>
</g>
<defs>
<clipPath id="clip0_5752_34133">
<rect width="81" height="20" fill="white"/>
</clipPath>
</defs>
</svg>
