<?xml version="1.0" encoding="UTF-8"?> <svg xmlns="http://www.w3.org/2000/svg" xmlns:xlink="http://www.w3.org/1999/xlink" width="82.174" height="42.293" viewBox="0 0 82.174 42.293"><defs><clipPath id="clip-path"><rect id="Rectangle_36" data-name="Rectangle 36" width="82.174" height="42.293" fill="none"></rect></clipPath></defs><g id="Group_31" data-name="Group 31" clip-path="url(#clip-path)"><path id="Path_10" data-name="Path 10" d="M20.931,40.5h0v5.846l0,.045c0,.593-.052,5.854-1.342,7.882a9.006,9.006,0,0,1-7.071,4.9,13.365,13.365,0,0,1-2.051.143,11.381,11.381,0,0,1-5.991-1.507A9.692,9.692,0,0,1,.3,50.8c0-.011-.174-1.246-.3-4.36V35.363a.518.518,0,0,1,.517-.517H5.457a.519.519,0,0,1,.527.517V46.441c0,.158-.106,3.922.792,5.325a4.046,4.046,0,0,0,3.7,2.063h.023s.05,0,.135,0a4.178,4.178,0,0,0,4.249-3.943,29.278,29.278,0,0,0,.163-3.5l0-.045h0V40.661c0-.08-.005-.157-.005-.234a5.586,5.586,0,0,1,5.581-5.58c.108,0,.215,0,.319.008Z" transform="translate(0 -25.47)" fill="#fff"></path><path id="Path_11" data-name="Path 11" d="M228.808,38.5l-.026-.066a7.413,7.413,0,0,0-6.871-4.78,7.2,7.2,0,0,0-6.632,4.527c-.028.059-.055.123-.078.187l-.057.134h5.249v0Zm6.066,4.263h0l0,.032a.52.52,0,0,1-.482.515l-.047,0-.02,0-.767,0h0l-18.813,0,.012.06A8.17,8.17,0,0,0,215.6,45.6a7.013,7.013,0,0,0,1.453,1.9,8.265,8.265,0,0,0,.712.521,6.7,6.7,0,0,0,3.484,1.243l.033.006a2.869,2.869,0,0,0,.363.014,10.529,10.529,0,0,0,2.526-.351,7.281,7.281,0,0,0,1.03-.324l.067-.028a5.216,5.216,0,0,1,1.94-.4,4.327,4.327,0,0,1,3.84,2.488c.051.089.1.179.143.271a.424.424,0,0,1,.081.249.414.414,0,0,1-.124.3l-.014.015c-.142.123-.287.242-.429.352l-.322.267s-.023.02-.059.047-.067.053-.08.062l-.014.01a12.838,12.838,0,0,1-6.187,2.23v0c-.38.045-.608.054-.61.054l-.128.009c-.412.029-.826.045-1.227.045a12.849,12.849,0,0,1-9.036-3.25,12.527,12.527,0,0,1-3.582-5.7,15.479,15.479,0,0,1-.4-6.007,12.55,12.55,0,0,1,1.492-4.62,12.76,12.76,0,0,1,6.066-5.479,15.826,15.826,0,0,1,4.939-.962h.2a13.685,13.685,0,0,1,6.1,1.3,12.952,12.952,0,0,1,4.579,3.875,13.4,13.4,0,0,1,2.009,4.464,18.5,18.5,0,0,1,.425,4.561" transform="translate(-152.706 -20.88)" fill="#fff"></path><path id="Path_12" data-name="Path 12" d="M184.431,3.1a3.1,3.1,0,1,1-3.1-3.1,3.1,3.1,0,0,1,3.1,3.1" transform="translate(-130.277 0)" fill="#fff"></path><path id="Path_13" data-name="Path 13" d="M183.979,56.2a.5.5,0,0,0,.5-.434l.009-.023V37.329h0V31.473c-.11-.006-.224-.011-.334-.011a5.793,5.793,0,0,0-5.786,5.788c0,.081,0,.161.006.245v5.587l-.006.051V55.727h0l0,.043a.507.507,0,0,0,.5.434Z" transform="translate(-130.37 -22.997)" fill="#fff"></path><path id="Path_14" data-name="Path 14" d="M108.446,32.3h.021L97.748,20.738l.031-.031c.076-.075.148-.15.217-.22l.032-.034,8.708-9.769c-.073-.073-.147-.143-.221-.208a4.9,4.9,0,0,0-3.3-1.249,5.784,5.784,0,0,0-4.292,2.009c-.052.06-.1.119-.152.181l-1.087,1.165-5.919,6.6-.017.012-.077.037V.637a.517.517,0,0,0-.4-.624l-.009,0a.546.546,0,0,0-.1-.01.577.577,0,0,0-.111.012H86.312v0h-.047a.52.52,0,0,0-.52.519V32.688a.52.52,0,0,0,.52.519H91.24V33.2l.037-.009a.518.518,0,0,0,.4-.5V22.082l2.289,2.462.066.087h0l7.277,7.882h.016l.493.534a.479.479,0,0,0,.36.16l.028,0,.019,0,.027,0,0,0h5.839l0-.01.054.006.027,0a.486.486,0,0,0,.349-.828Z" transform="translate(-62.674 -0.001)" fill="#fff"></path><path id="Path_15" data-name="Path 15" d="M2.006,142.275A2.006,2.006,0,0,0,0,144.281v2.006H43.96a2.006,2.006,0,0,0,2.006-2.006v-2.006Z" transform="translate(0 -103.993)" fill="#ff5860"></path></g></svg> 